<?xml version="1.0" standalone="no"?>
<!DOCTYPE svg PUBLIC "-//W3C//DTD SVG 20010904//EN"
 "http://www.w3.org/TR/2001/REC-SVG-20010904/DTD/svg10.dtd">
<svg version="1.0" xmlns="http://www.w3.org/2000/svg"
 width="512.000000pt" height="512.000000pt" viewBox="0 0 520.000000 520.000000"
 preserveAspectRatio="xMidYMid meet">
<g transform="translate(0.000000,520.000000) scale(0.100000,-0.100000)"
fill="#000000" stroke="none">
<path d="M655 5022 c-93 -10 -235 -64 -317 -120 -54 -37 -141 -124 -177 -177
-55 -80 -104 -202 -117 -292 -10 -64 -10 -2587 -1 -2638 50 -265 225 -472 472
-553 96 -32 132 -35 480 -37 182 0 335 -4 340 -7 7 -4 10 -182 10 -498 0 -270
2 -495 5 -500 3 -4 46 22 96 59 99 73 802 592 1094 808 l185 137 915 2 c503 2
927 5 942 7 56 10 165 50 228 85 96 52 225 186 271 282 89 185 83 83 84 1505
0 693 -3 1289 -8 1325 -10 84 -30 147 -75 240 -44 90 -175 229 -264 279 -62
35 -170 75 -233 86 -38 7 -3866 14 -3930 7z m335 -944 c26 -14 57 -41 75 -66
l30 -44 5 -403 5 -404 195 190 c110 107 212 198 235 209 74 36 178 17 232 -41
51 -56 67 -147 38 -216 -9 -22 -74 -96 -156 -179 l-141 -141 178 -239 c97
-131 185 -256 195 -278 26 -57 24 -112 -7 -174 -30 -60 -62 -86 -128 -104 -53
-14 -121 -1 -162 31 -13 10 -104 127 -204 260 l-181 242 -49 -43 -49 -43 -1
-135 c0 -155 -9 -197 -52 -246 -44 -49 -83 -67 -149 -66 -63 0 -101 16 -142
60 -58 60 -56 37 -54 908 l2 801 30 48 c56 90 161 120 255 73z m2139 -11 c22
-15 51 -46 63 -70 23 -41 23 -50 28 -438 l5 -396 195 189 c107 104 212 198
232 209 79 41 194 12 248 -63 36 -49 45 -104 29 -171 -11 -48 -24 -64 -156
-199 l-145 -146 171 -230 c202 -273 210 -285 218 -351 5 -42 1 -59 -21 -106
-61 -123 -223 -152 -313 -56 -18 20 -108 136 -198 259 l-166 223 -49 -42 -50
-42 0 -132 c0 -87 -5 -148 -15 -181 -15 -50 -56 -99 -104 -124 -34 -17 -132
-15 -168 4 -43 22 -90 80 -103 124 -15 58 -14 1586 1 1632 43 127 189 179 298
107z m-677 -523 c23 -16 51 -47 62 -69 20 -39 21 -54 24 -586 l2 -546 -28 -54
c-23 -43 -38 -59 -82 -82 -47 -25 -63 -28 -108 -24 -65 7 -115 37 -150 91
l-27 41 -3 545 c-2 371 0 557 8 582 36 124 195 178 302 102z m1985 -420 c56
-34 103 -114 103 -175 0 -84 -48 -162 -123 -200 -39 -20 -125 -27 -168 -14
-121 39 -184 187 -128 302 56 116 203 156 316 87z"/>
</g>
</svg>
